<?xml version="1.0" encoding="UTF-8" standalone="no"?>
<!DOCTYPE svg PUBLIC "-//W3C//DTD SVG 1.1//EN"
 "http://www.w3.org/Graphics/SVG/1.1/DTD/svg11.dtd">
<!-- Generated by graphviz version 2.40.1 (20161225.0304)
 -->
<!-- Title: dependencies Pages: 1 -->
<svg width="618pt" height="284pt"
 viewBox="0.00 0.00 618.00 284.00" xmlns="http://www.w3.org/2000/svg" xmlns:xlink="http://www.w3.org/1999/xlink">
<g id="graph0" class="graph" transform="scale(1 1) rotate(0) translate(4 280)">
<title>dependencies</title>
<polygon fill="#ffffff" stroke="transparent" points="-4,4 -4,-280 614,-280 614,4 -4,4"/>
<text text-anchor="start" x="284.0091" y="-42.4" font-family="sans-serif" font-weight="bold" font-size="14.00" fill="#000000">Legend</text>
<polygon fill="#ffffb3" stroke="transparent" points="71,-10 71,-30 91,-30 91,-10 71,-10"/>
<text text-anchor="start" x="94.629" y="-15.4" font-family="sans-serif" font-size="14.00" fill="#000000"> &#160;Declarations</text>
<polygon fill="#8dd3c7" stroke="transparent" points="184,-10 184,-30 204,-30 204,-10 184,-10"/>
<text text-anchor="start" x="207.7251" y="-15.4" font-family="sans-serif" font-size="14.00" fill="#000000"> &#160;Module</text>
<polygon fill="#80b1d3" stroke="transparent" points="270,-10 270,-30 290,-30 290,-10 270,-10"/>
<text text-anchor="start" x="293.7812" y="-15.4" font-family="sans-serif" font-size="14.00" fill="#000000"> &#160;Bootstrap</text>
<polygon fill="#fdb462" stroke="transparent" points="367,-10 367,-30 387,-30 387,-10 367,-10"/>
<text text-anchor="start" x="390.6732" y="-15.4" font-family="sans-serif" font-size="14.00" fill="#000000"> &#160;Providers</text>
<polygon fill="#fb8072" stroke="transparent" points="463,-10 463,-30 483,-30 483,-10 463,-10"/>
<text text-anchor="start" x="486.7258" y="-15.4" font-family="sans-serif" font-size="14.00" fill="#000000"> &#160;Exports</text>
<g id="clust1" class="cluster">
<title>cluster_TranslationModule</title>
<polygon fill="none" stroke="#000000" stroke-dasharray="1,5" points="8,-70 8,-268 602,-268 602,-70 8,-70"/>
</g>
<g id="clust2" class="cluster">
<title>cluster_TranslationModule_declarations</title>
<polygon fill="none" stroke="#000000" points="25,-78 25,-130 588,-130 588,-78 25,-78"/>
</g>
<g id="clust8" class="cluster">
<title>cluster_TranslationModule_exports</title>
<polygon fill="none" stroke="#000000" points="16,-208 16,-260 594,-260 594,-208 16,-208"/>
</g>
<!-- I18nDirective -->
<g id="node1" class="node">
<title>I18nDirective</title>
<polygon fill="#ffffb3" stroke="#000000" points="579.7438,-122 486.2562,-122 486.2562,-86 579.7438,-86 579.7438,-122"/>
<text text-anchor="middle" x="533" y="-99.8" font-family="Times,serif" font-size="14.00" fill="#000000">I18nDirective</text>
</g>
<!-- TranslationModule -->
<g id="node5" class="node">
<title>TranslationModule</title>
<polygon fill="#8dd3c7" stroke="#000000" points="300.809,-187 297.809,-191 276.809,-191 273.809,-187 177.191,-187 177.191,-151 300.809,-151 300.809,-187"/>
<text text-anchor="middle" x="239" y="-164.8" font-family="Times,serif" font-size="14.00" fill="#000000">TranslationModule</text>
</g>
<!-- I18nDirective&#45;&gt;TranslationModule -->
<g id="edge1" class="edge">
<title>I18nDirective&#45;&gt;TranslationModule</title>
<path fill="none" stroke="#000000" d="M549.3739,-122.2667C549.3739,-140.5552 549.3739,-166 549.3739,-166 549.3739,-166 310.691,-166 310.691,-166"/>
<polygon fill="#000000" stroke="#000000" points="310.691,-162.5001 300.691,-166 310.6909,-169.5001 310.691,-162.5001"/>
</g>
<!-- TranslateComponent -->
<g id="node2" class="node">
<title>TranslateComponent</title>
<polygon fill="#ffffb3" stroke="#000000" points="467.9158,-122 334.0842,-122 334.0842,-86 467.9158,-86 467.9158,-122"/>
<text text-anchor="middle" x="401" y="-99.8" font-family="Times,serif" font-size="14.00" fill="#000000">TranslateComponent</text>
</g>
<!-- TranslateComponent&#45;&gt;TranslationModule -->
<g id="edge2" class="edge">
<title>TranslateComponent&#45;&gt;TranslationModule</title>
<path fill="none" stroke="#000000" d="M423.2359,-122.0091C423.2359,-138.0494 423.2359,-159 423.2359,-159 423.2359,-159 310.8604,-159 310.8604,-159"/>
<polygon fill="#000000" stroke="#000000" points="310.8604,-155.5001 300.8604,-159 310.8604,-162.5001 310.8604,-155.5001"/>
</g>
<!-- TranslateParamsDirective -->
<g id="node3" class="node">
<title>TranslateParamsDirective</title>
<polygon fill="#ffffb3" stroke="#000000" points="316.8736,-122 155.1264,-122 155.1264,-86 316.8736,-86 316.8736,-122"/>
<text text-anchor="middle" x="236" y="-99.8" font-family="Times,serif" font-size="14.00" fill="#000000">TranslateParamsDirective</text>
</g>
<!-- TranslateParamsDirective&#45;&gt;TranslationModule -->
<g id="edge3" class="edge">
<title>TranslateParamsDirective&#45;&gt;TranslationModule</title>
<path fill="none" stroke="#000000" d="M239,-122.1061C239,-122.1061 239,-140.991 239,-140.991"/>
<polygon fill="#000000" stroke="#000000" points="235.5001,-140.9909 239,-150.991 242.5001,-140.991 235.5001,-140.9909"/>
</g>
<!-- TranslationPipe -->
<g id="node4" class="node">
<title>TranslationPipe</title>
<polygon fill="#ffffb3" stroke="#000000" points="137.1472,-122 32.8528,-122 32.8528,-86 137.1472,-86 137.1472,-122"/>
<text text-anchor="middle" x="85" y="-99.8" font-family="Times,serif" font-size="14.00" fill="#000000">TranslationPipe</text>
</g>
<!-- TranslationPipe&#45;&gt;TranslationModule -->
<g id="edge4" class="edge">
<title>TranslationPipe&#45;&gt;TranslationModule</title>
<path fill="none" stroke="#000000" d="M98.9411,-122.0225C98.9411,-139.3734 98.9411,-163 98.9411,-163 98.9411,-163 167.1604,-163 167.1604,-163"/>
<polygon fill="#000000" stroke="#000000" points="167.1605,-166.5001 177.1604,-163 167.1604,-159.5001 167.1605,-166.5001"/>
</g>
<!-- I18nDirective  -->
<g id="node6" class="node">
<title>I18nDirective </title>
<polygon fill="#fb8072" stroke="#000000" points="585.7437,-252 488.2563,-252 488.2563,-216 585.7437,-216 585.7437,-252"/>
<text text-anchor="middle" x="537" y="-229.8" font-family="Times,serif" font-size="14.00" fill="#000000">I18nDirective </text>
</g>
<!-- TranslationModule&#45;&gt;I18nDirective  -->
<g id="edge5" class="edge">
<title>TranslationModule&#45;&gt;I18nDirective </title>
<path fill="none" stroke="#000000" stroke-dasharray="5,2" d="M300.7665,-173C383.187,-173 518.8761,-173 518.8761,-173 518.8761,-173 518.8761,-205.698 518.8761,-205.698"/>
<polygon fill="#000000" stroke="#000000" points="515.3762,-205.698 518.8761,-215.698 522.3762,-205.698 515.3762,-205.698"/>
</g>
<!-- TranslateComponent  -->
<g id="node7" class="node">
<title>TranslateComponent </title>
<polygon fill="#fb8072" stroke="#000000" points="470.4152,-252 333.5848,-252 333.5848,-216 470.4152,-216 470.4152,-252"/>
<text text-anchor="middle" x="402" y="-229.8" font-family="Times,serif" font-size="14.00" fill="#000000">TranslateComponent </text>
</g>
<!-- TranslationModule&#45;&gt;TranslateComponent  -->
<g id="edge6" class="edge">
<title>TranslationModule&#45;&gt;TranslateComponent </title>
<path fill="none" stroke="#000000" stroke-dasharray="5,2" d="M300.7094,-180C338.1503,-180 378.7641,-180 378.7641,-180 378.7641,-180 378.7641,-205.7181 378.7641,-205.7181"/>
<polygon fill="#000000" stroke="#000000" points="375.2642,-205.718 378.7641,-215.7181 382.2642,-205.7181 375.2642,-205.718"/>
</g>
<!-- TranslateParamsDirective  -->
<g id="node8" class="node">
<title>TranslateParamsDirective </title>
<polygon fill="#fb8072" stroke="#000000" points="315.3732,-252 150.6268,-252 150.6268,-216 315.3732,-216 315.3732,-252"/>
<text text-anchor="middle" x="233" y="-229.8" font-family="Times,serif" font-size="14.00" fill="#000000">TranslateParamsDirective </text>
</g>
<!-- TranslationModule&#45;&gt;TranslateParamsDirective  -->
<g id="edge7" class="edge">
<title>TranslationModule&#45;&gt;TranslateParamsDirective </title>
<path fill="none" stroke="#000000" stroke-dasharray="5,2" d="M239,-187.1061C239,-187.1061 239,-205.991 239,-205.991"/>
<polygon fill="#000000" stroke="#000000" points="235.5001,-205.9909 239,-215.991 242.5001,-205.991 235.5001,-205.9909"/>
</g>
<!-- TranslationPipe  -->
<g id="node9" class="node">
<title>TranslationPipe </title>
<polygon fill="#fb8072" stroke="#000000" points="132.1467,-252 23.8533,-252 23.8533,-216 132.1467,-216 132.1467,-252"/>
<text text-anchor="middle" x="78" y="-229.8" font-family="Times,serif" font-size="14.00" fill="#000000">TranslationPipe </text>
</g>
<!-- TranslationModule&#45;&gt;TranslationPipe  -->
<g id="edge8" class="edge">
<title>TranslationModule&#45;&gt;TranslationPipe </title>
<path fill="none" stroke="#000000" stroke-dasharray="5,2" d="M176.9632,-175C127.2679,-175 65.8089,-175 65.8089,-175 65.8089,-175 65.8089,-205.9775 65.8089,-205.9775"/>
<polygon fill="#000000" stroke="#000000" points="62.309,-205.9774 65.8089,-215.9775 69.309,-205.9775 62.309,-205.9774"/>
</g>
</g>
</svg>
